<mxfile host="app.diagrams.net" modified="2023-10-28T00:49:11.630Z" agent="Mozilla/5.0 (X11; Linux x86_64) AppleWebKit/537.36 (KHTML, like Gecko) Chrome/118.0.0.0 Safari/537.36" etag="DB91hl-UcUd2JoxHDtWJ" version="22.0.8" type="github">
  <diagram name="Pagina-1" id="zLtLsO0ySY47t27Yj4bS">
    <mxGraphModel dx="2389" dy="969" grid="1" gridSize="10" guides="1" tooltips="1" connect="1" arrows="1" fold="1" page="1" pageScale="1" pageWidth="827" pageHeight="1169" math="0" shadow="0">
      <root>
        <mxCell id="0" />
        <mxCell id="1" parent="0" />
        <mxCell id="9P4-RmKASeGlcGMQjBVW-32" style="edgeStyle=none;rounded=0;orthogonalLoop=1;jettySize=auto;html=1;exitX=0;exitY=1;exitDx=0;exitDy=0;entryX=0.897;entryY=0.083;entryDx=0;entryDy=0;endArrow=classic;endFill=1;entryPerimeter=0;" parent="1" source="9P4-RmKASeGlcGMQjBVW-34" target="9P4-RmKASeGlcGMQjBVW-39" edge="1">
          <mxGeometry relative="1" as="geometry" />
        </mxCell>
        <mxCell id="9P4-RmKASeGlcGMQjBVW-33" style="edgeStyle=none;rounded=0;orthogonalLoop=1;jettySize=auto;html=1;exitX=1;exitY=1;exitDx=0;exitDy=0;" parent="1" source="9P4-RmKASeGlcGMQjBVW-34" target="9P4-RmKASeGlcGMQjBVW-37" edge="1">
          <mxGeometry relative="1" as="geometry" />
        </mxCell>
        <mxCell id="9P4-RmKASeGlcGMQjBVW-34" value="a" style="ellipse;whiteSpace=wrap;html=1;aspect=fixed;" parent="1" vertex="1">
          <mxGeometry x="-188" y="350" width="40" height="40" as="geometry" />
        </mxCell>
        <mxCell id="9P4-RmKASeGlcGMQjBVW-35" style="edgeStyle=none;rounded=0;orthogonalLoop=1;jettySize=auto;html=1;exitX=0.5;exitY=1;exitDx=0;exitDy=0;entryX=0.5;entryY=0;entryDx=0;entryDy=0;" parent="1" source="9P4-RmKASeGlcGMQjBVW-37" target="9P4-RmKASeGlcGMQjBVW-40" edge="1">
          <mxGeometry relative="1" as="geometry" />
        </mxCell>
        <mxCell id="9P4-RmKASeGlcGMQjBVW-36" style="edgeStyle=none;rounded=0;orthogonalLoop=1;jettySize=auto;html=1;exitX=0;exitY=1;exitDx=0;exitDy=0;entryX=0.945;entryY=0.26;entryDx=0;entryDy=0;entryPerimeter=0;" parent="1" source="9P4-RmKASeGlcGMQjBVW-37" target="9P4-RmKASeGlcGMQjBVW-42" edge="1">
          <mxGeometry relative="1" as="geometry" />
        </mxCell>
        <mxCell id="9P4-RmKASeGlcGMQjBVW-37" value="b" style="ellipse;whiteSpace=wrap;html=1;aspect=fixed;" parent="1" vertex="1">
          <mxGeometry x="-118" y="430" width="40" height="40" as="geometry" />
        </mxCell>
        <mxCell id="9P4-RmKASeGlcGMQjBVW-38" style="edgeStyle=none;rounded=0;orthogonalLoop=1;jettySize=auto;html=1;exitX=0.5;exitY=1;exitDx=0;exitDy=0;entryX=0.5;entryY=0;entryDx=0;entryDy=0;" parent="1" source="9P4-RmKASeGlcGMQjBVW-39" target="9P4-RmKASeGlcGMQjBVW-42" edge="1">
          <mxGeometry relative="1" as="geometry" />
        </mxCell>
        <mxCell id="9P4-RmKASeGlcGMQjBVW-39" value="c" style="ellipse;whiteSpace=wrap;html=1;aspect=fixed;" parent="1" vertex="1">
          <mxGeometry x="-268" y="430" width="40" height="40" as="geometry" />
        </mxCell>
        <mxCell id="9P4-RmKASeGlcGMQjBVW-40" value="e" style="ellipse;whiteSpace=wrap;html=1;aspect=fixed;" parent="1" vertex="1">
          <mxGeometry x="-118" y="530" width="40" height="40" as="geometry" />
        </mxCell>
        <mxCell id="9P4-RmKASeGlcGMQjBVW-41" style="edgeStyle=none;rounded=0;orthogonalLoop=1;jettySize=auto;html=1;exitX=1;exitY=1;exitDx=0;exitDy=0;entryX=0.25;entryY=0;entryDx=0;entryDy=0;entryPerimeter=0;endArrow=classic;endFill=1;" parent="1" source="9P4-RmKASeGlcGMQjBVW-42" target="9P4-RmKASeGlcGMQjBVW-43" edge="1">
          <mxGeometry relative="1" as="geometry" />
        </mxCell>
        <mxCell id="9P4-RmKASeGlcGMQjBVW-42" value="d" style="ellipse;whiteSpace=wrap;html=1;aspect=fixed;" parent="1" vertex="1">
          <mxGeometry x="-268" y="530" width="40" height="40" as="geometry" />
        </mxCell>
        <mxCell id="9P4-RmKASeGlcGMQjBVW-43" value="f" style="ellipse;whiteSpace=wrap;html=1;aspect=fixed;" parent="1" vertex="1">
          <mxGeometry x="-198" y="620" width="40" height="40" as="geometry" />
        </mxCell>
      </root>
    </mxGraphModel>
  </diagram>
</mxfile>
